<mxfile host="Electron" agent="Mozilla/5.0 (Windows NT 10.0; Win64; x64) AppleWebKit/537.36 (KHTML, like Gecko) draw.io/26.0.16 Chrome/132.0.6834.196 Electron/34.2.0 Safari/537.36" version="26.0.16">
  <diagram name="Page-1" id="vOtwhBu7A5QNr4yNKkLE">
    <mxGraphModel dx="863" dy="505" grid="1" gridSize="10" guides="1" tooltips="1" connect="1" arrows="1" fold="1" page="1" pageScale="1" pageWidth="850" pageHeight="1100" math="0" shadow="0">
      <root>
        <mxCell id="0" />
        <mxCell id="1" parent="0" />
        <mxCell id="hmNTK_L-5esckC55R9ji-1" value="Tenant" style="swimlane;fontStyle=0;childLayout=stackLayout;horizontal=1;startSize=26;fillColor=none;horizontalStack=0;resizeParent=1;resizeParentMax=0;resizeLast=0;collapsible=1;marginBottom=0;whiteSpace=wrap;html=1;" parent="1" vertex="1">
          <mxGeometry x="9" y="220" width="140" height="52" as="geometry" />
        </mxCell>
        <mxCell id="hmNTK_L-5esckC55R9ji-5" value="&amp;lt;&amp;lt;abstract&amp;gt;&amp;gt;&lt;br&gt;User" style="swimlane;fontStyle=0;childLayout=stackLayout;horizontal=1;startSize=26;fillColor=none;horizontalStack=0;resizeParent=1;resizeParentMax=0;resizeLast=0;collapsible=1;marginBottom=0;whiteSpace=wrap;html=1;" parent="1" vertex="1">
          <mxGeometry x="220" y="40" width="140" height="100" as="geometry" />
        </mxCell>
        <mxCell id="hmNTK_L-5esckC55R9ji-8" value="&lt;div&gt;-fname&lt;/div&gt;-lName&lt;div&gt;&lt;span style=&quot;background-color: transparent; color: light-dark(rgb(0, 0, 0), rgb(255, 255, 255));&quot;&gt;-password&lt;/span&gt;&lt;/div&gt;&lt;div&gt;&lt;span style=&quot;background-color: transparent; color: light-dark(rgb(0, 0, 0), rgb(255, 255, 255));&quot;&gt;-userName&lt;/span&gt;&lt;/div&gt;&lt;div&gt;&lt;br&gt;&lt;/div&gt;" style="text;strokeColor=none;fillColor=none;align=left;verticalAlign=top;spacingLeft=4;spacingRight=4;overflow=hidden;rotatable=0;points=[[0,0.5],[1,0.5]];portConstraint=eastwest;whiteSpace=wrap;html=1;" parent="hmNTK_L-5esckC55R9ji-5" vertex="1">
          <mxGeometry y="26" width="140" height="74" as="geometry" />
        </mxCell>
        <mxCell id="QvlMeQB52s9vAWDjQTkU-15" value="Booking" style="swimlane;fontStyle=0;childLayout=stackLayout;horizontal=1;startSize=26;fillColor=none;horizontalStack=0;resizeParent=1;resizeParentMax=0;resizeLast=0;collapsible=1;marginBottom=0;whiteSpace=wrap;html=1;" vertex="1" parent="1">
          <mxGeometry x="9" y="400" width="140" height="90" as="geometry" />
        </mxCell>
        <mxCell id="QvlMeQB52s9vAWDjQTkU-16" value="-bookingId&lt;div&gt;-bookingDate&lt;/div&gt;&lt;div&gt;-bookingStatus&lt;/div&gt;&lt;div&gt;&lt;br&gt;&lt;/div&gt;" style="text;strokeColor=none;fillColor=none;align=left;verticalAlign=top;spacingLeft=4;spacingRight=4;overflow=hidden;rotatable=0;points=[[0,0.5],[1,0.5]];portConstraint=eastwest;whiteSpace=wrap;html=1;" vertex="1" parent="QvlMeQB52s9vAWDjQTkU-15">
          <mxGeometry y="26" width="140" height="64" as="geometry" />
        </mxCell>
        <mxCell id="QvlMeQB52s9vAWDjQTkU-17" value="Lease" style="swimlane;fontStyle=0;childLayout=stackLayout;horizontal=1;startSize=26;fillColor=none;horizontalStack=0;resizeParent=1;resizeParentMax=0;resizeLast=0;collapsible=1;marginBottom=0;whiteSpace=wrap;html=1;" vertex="1" parent="1">
          <mxGeometry x="490" y="400" width="160" height="120" as="geometry" />
        </mxCell>
        <mxCell id="QvlMeQB52s9vAWDjQTkU-18" value="-leaseId&lt;div&gt;-tenantSignDate&lt;/div&gt;&lt;div&gt;-propertyOwnerSignDate&lt;br&gt;&lt;div&gt;-expiryDate&lt;/div&gt;&lt;div&gt;-urlForDocument&lt;/div&gt;&lt;div&gt;&lt;br&gt;&lt;/div&gt;&lt;/div&gt;" style="text;strokeColor=none;fillColor=none;align=left;verticalAlign=top;spacingLeft=4;spacingRight=4;overflow=hidden;rotatable=0;points=[[0,0.5],[1,0.5]];portConstraint=eastwest;whiteSpace=wrap;html=1;" vertex="1" parent="QvlMeQB52s9vAWDjQTkU-17">
          <mxGeometry y="26" width="160" height="94" as="geometry" />
        </mxCell>
        <mxCell id="QvlMeQB52s9vAWDjQTkU-19" value="Property" style="swimlane;fontStyle=0;childLayout=stackLayout;horizontal=1;startSize=26;fillColor=none;horizontalStack=0;resizeParent=1;resizeParentMax=0;resizeLast=0;collapsible=1;marginBottom=0;whiteSpace=wrap;html=1;" vertex="1" parent="1">
          <mxGeometry x="260" y="400" width="140" height="120" as="geometry" />
        </mxCell>
        <mxCell id="QvlMeQB52s9vAWDjQTkU-20" value="-propertyId&lt;div&gt;&lt;span style=&quot;background-color: transparent; color: light-dark(rgb(0, 0, 0), rgb(255, 255, 255));&quot;&gt;-propertyType&lt;/span&gt;&lt;/div&gt;&lt;div&gt;-ammenities&lt;/div&gt;&lt;div&gt;&lt;div&gt;-availability&lt;/div&gt;&lt;div&gt;-price&lt;/div&gt;&lt;div&gt;&lt;br&gt;&lt;/div&gt;&lt;/div&gt;" style="text;strokeColor=none;fillColor=none;align=left;verticalAlign=top;spacingLeft=4;spacingRight=4;overflow=hidden;rotatable=0;points=[[0,0.5],[1,0.5]];portConstraint=eastwest;whiteSpace=wrap;html=1;" vertex="1" parent="QvlMeQB52s9vAWDjQTkU-19">
          <mxGeometry y="26" width="140" height="94" as="geometry" />
        </mxCell>
        <mxCell id="QvlMeQB52s9vAWDjQTkU-22" value="Admin" style="swimlane;fontStyle=0;childLayout=stackLayout;horizontal=1;startSize=26;fillColor=none;horizontalStack=0;resizeParent=1;resizeParentMax=0;resizeLast=0;collapsible=1;marginBottom=0;whiteSpace=wrap;html=1;" vertex="1" parent="1">
          <mxGeometry x="490" y="220" width="140" height="52" as="geometry" />
        </mxCell>
        <mxCell id="QvlMeQB52s9vAWDjQTkU-29" value="Address" style="swimlane;fontStyle=0;childLayout=stackLayout;horizontal=1;startSize=26;fillColor=none;horizontalStack=0;resizeParent=1;resizeParentMax=0;resizeLast=0;collapsible=1;marginBottom=0;whiteSpace=wrap;html=1;" vertex="1" parent="1">
          <mxGeometry x="680" y="280" width="140" height="90" as="geometry" />
        </mxCell>
        <mxCell id="QvlMeQB52s9vAWDjQTkU-30" value="&lt;div&gt;-zip&lt;/div&gt;&lt;div&gt;-street&lt;/div&gt;&lt;div&gt;-state&lt;/div&gt;" style="text;strokeColor=none;fillColor=none;align=left;verticalAlign=top;spacingLeft=4;spacingRight=4;overflow=hidden;rotatable=0;points=[[0,0.5],[1,0.5]];portConstraint=eastwest;whiteSpace=wrap;html=1;" vertex="1" parent="QvlMeQB52s9vAWDjQTkU-29">
          <mxGeometry y="26" width="140" height="64" as="geometry" />
        </mxCell>
        <mxCell id="QvlMeQB52s9vAWDjQTkU-32" value="" style="endArrow=none;html=1;rounded=0;exitX=0.5;exitY=0;exitDx=0;exitDy=0;entryX=0.5;entryY=1;entryDx=0;entryDy=0;" edge="1" parent="1" source="QvlMeQB52s9vAWDjQTkU-15" target="hmNTK_L-5esckC55R9ji-1">
          <mxGeometry width="50" height="50" relative="1" as="geometry">
            <mxPoint x="79" y="360" as="sourcePoint" />
            <mxPoint x="129" y="310" as="targetPoint" />
          </mxGeometry>
        </mxCell>
        <mxCell id="QvlMeQB52s9vAWDjQTkU-34" value="" style="endArrow=none;html=1;rounded=0;exitX=0.5;exitY=0;exitDx=0;exitDy=0;entryX=0.5;entryY=1;entryDx=0;entryDy=0;" edge="1" parent="1" source="QvlMeQB52s9vAWDjQTkU-19" target="hmNTK_L-5esckC55R9ji-9">
          <mxGeometry width="50" height="50" relative="1" as="geometry">
            <mxPoint x="370" y="370" as="sourcePoint" />
            <mxPoint x="320" y="290" as="targetPoint" />
          </mxGeometry>
        </mxCell>
        <mxCell id="QvlMeQB52s9vAWDjQTkU-35" style="edgeStyle=orthogonalEdgeStyle;rounded=0;orthogonalLoop=1;jettySize=auto;html=1;exitX=1;exitY=0.5;exitDx=0;exitDy=0;entryX=0.001;entryY=0.335;entryDx=0;entryDy=0;entryPerimeter=0;" edge="1" parent="1" source="QvlMeQB52s9vAWDjQTkU-16" target="QvlMeQB52s9vAWDjQTkU-20">
          <mxGeometry relative="1" as="geometry">
            <mxPoint x="220" y="459" as="targetPoint" />
          </mxGeometry>
        </mxCell>
        <mxCell id="QvlMeQB52s9vAWDjQTkU-36" value="" style="endArrow=none;html=1;rounded=0;exitX=0.75;exitY=0;exitDx=0;exitDy=0;entryX=0.25;entryY=1;entryDx=0;entryDy=0;" edge="1" parent="1" source="QvlMeQB52s9vAWDjQTkU-15" target="hmNTK_L-5esckC55R9ji-9">
          <mxGeometry width="50" height="50" relative="1" as="geometry">
            <mxPoint x="250" y="400" as="sourcePoint" />
            <mxPoint x="250" y="272" as="targetPoint" />
          </mxGeometry>
        </mxCell>
        <mxCell id="QvlMeQB52s9vAWDjQTkU-37" value="" style="endArrow=none;html=1;rounded=0;entryX=0;entryY=0.371;entryDx=0;entryDy=0;entryPerimeter=0;" edge="1" parent="1" target="QvlMeQB52s9vAWDjQTkU-18">
          <mxGeometry width="50" height="50" relative="1" as="geometry">
            <mxPoint x="400" y="461" as="sourcePoint" />
            <mxPoint x="370" y="410" as="targetPoint" />
          </mxGeometry>
        </mxCell>
        <mxCell id="QvlMeQB52s9vAWDjQTkU-38" value="" style="endArrow=none;html=1;rounded=0;" edge="1" parent="1">
          <mxGeometry width="50" height="50" relative="1" as="geometry">
            <mxPoint x="80" y="190" as="sourcePoint" />
            <mxPoint x="560" y="190" as="targetPoint" />
          </mxGeometry>
        </mxCell>
        <mxCell id="QvlMeQB52s9vAWDjQTkU-39" value="" style="endArrow=none;html=1;rounded=0;exitX=0.357;exitY=0;exitDx=0;exitDy=0;exitPerimeter=0;entryX=0.75;entryY=1;entryDx=0;entryDy=0;" edge="1" parent="1" source="QvlMeQB52s9vAWDjQTkU-17" target="hmNTK_L-5esckC55R9ji-1">
          <mxGeometry width="50" height="50" relative="1" as="geometry">
            <mxPoint x="460" y="380" as="sourcePoint" />
            <mxPoint x="510" y="330" as="targetPoint" />
          </mxGeometry>
        </mxCell>
        <mxCell id="QvlMeQB52s9vAWDjQTkU-41" value="" style="endArrow=none;html=1;rounded=0;" edge="1" parent="1" source="hmNTK_L-5esckC55R9ji-1">
          <mxGeometry width="50" height="50" relative="1" as="geometry">
            <mxPoint x="30" y="240" as="sourcePoint" />
            <mxPoint x="80" y="190" as="targetPoint" />
          </mxGeometry>
        </mxCell>
        <mxCell id="QvlMeQB52s9vAWDjQTkU-42" value="" style="endArrow=none;html=1;rounded=0;" edge="1" parent="1" source="hmNTK_L-5esckC55R9ji-9">
          <mxGeometry width="50" height="50" relative="1" as="geometry">
            <mxPoint x="280" y="220" as="sourcePoint" />
            <mxPoint x="330" y="190" as="targetPoint" />
          </mxGeometry>
        </mxCell>
        <mxCell id="QvlMeQB52s9vAWDjQTkU-44" value="" style="endArrow=none;html=1;rounded=0;" edge="1" parent="1">
          <mxGeometry width="50" height="50" relative="1" as="geometry">
            <mxPoint x="559.64" y="220" as="sourcePoint" />
            <mxPoint x="559.64" y="190" as="targetPoint" />
          </mxGeometry>
        </mxCell>
        <mxCell id="QvlMeQB52s9vAWDjQTkU-45" value="" style="endArrow=none;html=1;rounded=0;exitX=0.832;exitY=0.003;exitDx=0;exitDy=0;exitPerimeter=0;" edge="1" parent="1" source="QvlMeQB52s9vAWDjQTkU-19">
          <mxGeometry width="50" height="50" relative="1" as="geometry">
            <mxPoint x="400" y="360" as="sourcePoint" />
            <mxPoint x="680" y="319" as="targetPoint" />
            <Array as="points">
              <mxPoint x="376" y="320" />
            </Array>
          </mxGeometry>
        </mxCell>
        <mxCell id="QvlMeQB52s9vAWDjQTkU-46" value="" style="endArrow=none;html=1;rounded=0;exitX=0.992;exitY=0.305;exitDx=0;exitDy=0;exitPerimeter=0;entryX=0.5;entryY=0;entryDx=0;entryDy=0;" edge="1" parent="1" source="hmNTK_L-5esckC55R9ji-8" target="QvlMeQB52s9vAWDjQTkU-29">
          <mxGeometry width="50" height="50" relative="1" as="geometry">
            <mxPoint x="425" y="140" as="sourcePoint" />
            <mxPoint x="740" y="90" as="targetPoint" />
            <Array as="points">
              <mxPoint x="750" y="90" />
            </Array>
          </mxGeometry>
        </mxCell>
        <mxCell id="QvlMeQB52s9vAWDjQTkU-47" value="" style="endArrow=none;html=1;rounded=0;entryX=0.5;entryY=0;entryDx=0;entryDy=0;exitX=0.75;exitY=1;exitDx=0;exitDy=0;" edge="1" parent="1" source="hmNTK_L-5esckC55R9ji-9" target="QvlMeQB52s9vAWDjQTkU-17">
          <mxGeometry width="50" height="50" relative="1" as="geometry">
            <mxPoint x="340" y="270" as="sourcePoint" />
            <mxPoint x="410" y="290" as="targetPoint" />
          </mxGeometry>
        </mxCell>
        <mxCell id="QvlMeQB52s9vAWDjQTkU-49" value="" style="endArrow=none;html=1;rounded=0;" edge="1" parent="1" target="hmNTK_L-5esckC55R9ji-9">
          <mxGeometry width="50" height="50" relative="1" as="geometry">
            <mxPoint x="280" y="220" as="sourcePoint" />
            <mxPoint x="280" y="190" as="targetPoint" />
          </mxGeometry>
        </mxCell>
        <mxCell id="hmNTK_L-5esckC55R9ji-9" value="PropertyOwner" style="swimlane;fontStyle=0;childLayout=stackLayout;horizontal=1;startSize=26;fillColor=none;horizontalStack=0;resizeParent=1;resizeParentMax=0;resizeLast=0;collapsible=1;marginBottom=0;whiteSpace=wrap;html=1;" parent="1" vertex="1">
          <mxGeometry x="260" y="220" width="140" height="52" as="geometry" />
        </mxCell>
        <mxCell id="QvlMeQB52s9vAWDjQTkU-50" value="has" style="text;html=1;align=center;verticalAlign=middle;whiteSpace=wrap;rounded=0;" vertex="1" parent="1">
          <mxGeometry x="284" y="294" width="47" height="15" as="geometry" />
        </mxCell>
        <mxCell id="QvlMeQB52s9vAWDjQTkU-51" value="1" style="text;html=1;align=center;verticalAlign=middle;whiteSpace=wrap;rounded=0;" vertex="1" parent="1">
          <mxGeometry x="30" y="272" width="60" height="30" as="geometry" />
        </mxCell>
        <mxCell id="QvlMeQB52s9vAWDjQTkU-56" value="1" style="text;html=1;align=center;verticalAlign=middle;whiteSpace=wrap;rounded=0;" vertex="1" parent="1">
          <mxGeometry x="240" y="276" width="29" height="22" as="geometry" />
        </mxCell>
        <mxCell id="QvlMeQB52s9vAWDjQTkU-57" value="approves" style="text;html=1;align=center;verticalAlign=middle;whiteSpace=wrap;rounded=0;" vertex="1" parent="1">
          <mxGeometry x="140" y="320" width="60" height="30" as="geometry" />
        </mxCell>
        <mxCell id="QvlMeQB52s9vAWDjQTkU-58" value="1" style="text;html=1;align=center;verticalAlign=middle;whiteSpace=wrap;rounded=0;" vertex="1" parent="1">
          <mxGeometry x="331" y="272" width="29" height="22" as="geometry" />
        </mxCell>
        <mxCell id="QvlMeQB52s9vAWDjQTkU-59" value="1" style="text;html=1;align=center;verticalAlign=middle;whiteSpace=wrap;rounded=0;" vertex="1" parent="1">
          <mxGeometry x="331" y="378" width="29" height="22" as="geometry" />
        </mxCell>
        <mxCell id="QvlMeQB52s9vAWDjQTkU-60" value="1" style="text;html=1;align=center;verticalAlign=middle;whiteSpace=wrap;rounded=0;" vertex="1" parent="1">
          <mxGeometry x="155.5" y="262" width="29" height="22" as="geometry" />
        </mxCell>
        <mxCell id="QvlMeQB52s9vAWDjQTkU-61" value="signs" style="text;html=1;align=center;verticalAlign=middle;whiteSpace=wrap;rounded=0;" vertex="1" parent="1">
          <mxGeometry x="250" y="327.5" width="47" height="15" as="geometry" />
        </mxCell>
        <mxCell id="QvlMeQB52s9vAWDjQTkU-62" value="signs" style="text;html=1;align=center;verticalAlign=middle;whiteSpace=wrap;rounded=0;" vertex="1" parent="1">
          <mxGeometry x="480" y="327.5" width="47" height="15" as="geometry" />
        </mxCell>
        <mxCell id="QvlMeQB52s9vAWDjQTkU-63" value="1" style="text;html=1;align=center;verticalAlign=middle;whiteSpace=wrap;rounded=0;" vertex="1" parent="1">
          <mxGeometry x="400" y="276" width="29" height="22" as="geometry" />
        </mxCell>
        <mxCell id="QvlMeQB52s9vAWDjQTkU-65" value="0...*" style="text;html=1;align=center;verticalAlign=middle;whiteSpace=wrap;rounded=0;" vertex="1" parent="1">
          <mxGeometry x="570" y="374" width="29" height="22" as="geometry" />
        </mxCell>
        <mxCell id="QvlMeQB52s9vAWDjQTkU-66" value="0...*" style="text;html=1;align=center;verticalAlign=middle;whiteSpace=wrap;rounded=0;" vertex="1" parent="1">
          <mxGeometry x="461" y="378" width="29" height="22" as="geometry" />
        </mxCell>
        <mxCell id="QvlMeQB52s9vAWDjQTkU-67" value="" style="shape=flexArrow;endArrow=classic;html=1;rounded=0;entryX=0.506;entryY=1.012;entryDx=0;entryDy=0;entryPerimeter=0;" edge="1" parent="1" target="hmNTK_L-5esckC55R9ji-8">
          <mxGeometry width="50" height="50" relative="1" as="geometry">
            <mxPoint x="292" y="190" as="sourcePoint" />
            <mxPoint x="292" y="150" as="targetPoint" />
          </mxGeometry>
        </mxCell>
        <mxCell id="QvlMeQB52s9vAWDjQTkU-68" value="makes a" style="text;html=1;align=center;verticalAlign=middle;whiteSpace=wrap;rounded=0;" vertex="1" parent="1">
          <mxGeometry x="20" y="340" width="60" height="17.5" as="geometry" />
        </mxCell>
        <mxCell id="QvlMeQB52s9vAWDjQTkU-69" value="has an" style="text;html=1;align=center;verticalAlign=middle;whiteSpace=wrap;rounded=0;" vertex="1" parent="1">
          <mxGeometry x="523" y="302" width="47" height="15" as="geometry" />
        </mxCell>
        <mxCell id="QvlMeQB52s9vAWDjQTkU-70" value="has an" style="text;html=1;align=center;verticalAlign=middle;whiteSpace=wrap;rounded=0;" vertex="1" parent="1">
          <mxGeometry x="700" y="130" width="47" height="15" as="geometry" />
        </mxCell>
        <mxCell id="QvlMeQB52s9vAWDjQTkU-71" value="1" style="text;html=1;align=center;verticalAlign=middle;whiteSpace=wrap;rounded=0;" vertex="1" parent="1">
          <mxGeometry x="371" y="60" width="29" height="22" as="geometry" />
        </mxCell>
        <mxCell id="QvlMeQB52s9vAWDjQTkU-72" value="1" style="text;html=1;align=center;verticalAlign=middle;whiteSpace=wrap;rounded=0;" vertex="1" parent="1">
          <mxGeometry x="750" y="254" width="29" height="22" as="geometry" />
        </mxCell>
        <mxCell id="QvlMeQB52s9vAWDjQTkU-73" value="1" style="text;html=1;align=center;verticalAlign=middle;whiteSpace=wrap;rounded=0;" vertex="1" parent="1">
          <mxGeometry x="400" y="460" width="29" height="22" as="geometry" />
        </mxCell>
        <mxCell id="QvlMeQB52s9vAWDjQTkU-74" value="1" style="text;html=1;align=center;verticalAlign=middle;whiteSpace=wrap;rounded=0;" vertex="1" parent="1">
          <mxGeometry x="461" y="460" width="29" height="22" as="geometry" />
        </mxCell>
        <mxCell id="QvlMeQB52s9vAWDjQTkU-75" value="1" style="text;html=1;align=center;verticalAlign=middle;whiteSpace=wrap;rounded=0;" vertex="1" parent="1">
          <mxGeometry x="155.5" y="460" width="29" height="22" as="geometry" />
        </mxCell>
        <mxCell id="QvlMeQB52s9vAWDjQTkU-76" value="1" style="text;html=1;align=center;verticalAlign=middle;whiteSpace=wrap;rounded=0;" vertex="1" parent="1">
          <mxGeometry x="231" y="460" width="29" height="22" as="geometry" />
        </mxCell>
        <mxCell id="QvlMeQB52s9vAWDjQTkU-77" value="has a" style="text;html=1;align=center;verticalAlign=middle;whiteSpace=wrap;rounded=0;" vertex="1" parent="1">
          <mxGeometry x="171" y="436.25" width="60" height="17.5" as="geometry" />
        </mxCell>
        <mxCell id="QvlMeQB52s9vAWDjQTkU-78" value="has a" style="text;html=1;align=center;verticalAlign=middle;whiteSpace=wrap;rounded=0;" vertex="1" parent="1">
          <mxGeometry x="410" y="436.25" width="60" height="17.5" as="geometry" />
        </mxCell>
        <mxCell id="QvlMeQB52s9vAWDjQTkU-79" value="0...*" style="text;html=1;align=center;verticalAlign=middle;whiteSpace=wrap;rounded=0;" vertex="1" parent="1">
          <mxGeometry x="35.5" y="374" width="29" height="22" as="geometry" />
        </mxCell>
        <mxCell id="QvlMeQB52s9vAWDjQTkU-80" value="0...*" style="text;html=1;align=center;verticalAlign=middle;whiteSpace=wrap;rounded=0;" vertex="1" parent="1">
          <mxGeometry x="90" y="374" width="29" height="22" as="geometry" />
        </mxCell>
      </root>
    </mxGraphModel>
  </diagram>
</mxfile>
